<svg id="Capa_1" data-name="Capa 1" xmlns="http://www.w3.org/2000/svg" viewBox="0 0 336.96 383.25"><defs><style>.cls-1{fill:#fff;}</style></defs><path class="cls-1" d="M8.29,383.25C1.64,380.18-.13,374.9,0,367.8c1.32-68.77,53.77-129.9,121.48-141a185.05,185.05,0,0,1,25.66-2.16c15.21-.33,30.45-.54,45.64,0,57.7,2.12,99.94,29.49,127.59,79.68,10.87,19.74,15.61,41.32,16.56,63.82.29,7-1.82,12.08-8.28,15.08Z" transform="translate(0)"/><path class="cls-1" d="M168.42,202.1A101.05,101.05,0,1,1,269.53,101.28,101.24,101.24,0,0,1,168.42,202.1Z" transform="translate(0)"/></svg>